<?xml version="1.0" standalone="no"?>
<svg xmlns="http://www.w3.org/2000/svg" viewBox="0 0 156.70499999999998 50" width="156.70499999999998" height="50"><rect fill="#ff7c7c" width="156.70499999999998" height="50" x="0" y="0"></rect><g fill="white" color="white" transform="translate(12 12) scale(0.5416667)"><svg width="27.0" height="48.0" x="0.0" y="0.0" viewBox="0 0 27 48"><path fill="currentColor" fill-rule="evenodd" d="M5.428 1.259c.096.227-.703 10.723-.685 15.628.005.89.114 1.784.219 2.669.105.89 1.14 1.668 2.006 1.466.225-.051.519-.443.53-.688.114-2.571.123-5.15.273-7.715.172-3.004.457-6 .702-8.999.082-1.002.73-1.152 1.53-.91.747.224 1.508.464 2.194.827.66.348 1.016.91.912 1.773-.244 2.057-.403 4.122-.572 6.187-.197 2.391-.353 4.785-.56 7.176-.092 1.083-.282 2.156-.39 3.237-.076.753-.603.81-1.114.677-1.216-.32-1.464.274-1.467 1.315-.003 1.922-.115 3.844-.107 5.765.005 1.293.39 1.695 1.678 1.67 1.4-.027 2.804-.175 4.193-.355.294-.04.726-.432.771-.715.311-1.892.515-3.8.797-5.699.081-.549-.024-.847-.605-.948-.93-.158-1.336-.862-1.394-1.687-.14-2.01-.18-4.029-.267-6.044-.05-1.166-.122-2.328-.185-3.49-.09-1.641.608-6.2.718-6.88.143-.873.489-1.711.636-2.585.219-1.248 1.092-2.625 2.158-2.61 2.653.042 5.31.221 7.97.868.768.19 1.005.53 1.04 1.228v.102c-.028 1.613-1.12 18.056-1.51 21.09-.381 2.936-.953 5.848-1.405 8.776-.57 3.683-1.142 7.368-1.635 11.063-.268 2.003-1.658 3.347-3.7 3.511-3.542.285-7.075.722-10.623.94-1.605.099-3.353.343-4.766-.685-.627-.456-1.265-1.295-1.352-2.027C1.082 42.3-1.457 4.422 1.196.316c.943-.72 3.778-.127 4.232.943zM1.708 2c-.178.69-.234 1.417-.289 2.133-.167 2.294.37 24.14.49 26.735.132 2.86.334 5.72.531 8.578.094 1.361.309 2.718.369 4.083.098 2.261 1.047 3.308 3.277 3.325a29.128 29.128 0 0 0 5.28-.429c2.014-.35 4.103-.29 6.159-.39 1.718-.084 2.216-.464 2.613-2.155.234-1.002.424-2.013.599-3.025.549-3.16 3.058-23.44 3.498-27.94.11-1.105.822-8.49.648-10.114-.023-.23-.317-.588-.524-.614-1.371-.19-2.758-.43-4.13-.402-1.122.021-2.448-.288-3.181 1.102-1.107 2.106-1.644 4.365-1.788 6.7-.14 2.25-.106 4.512-.079 6.767.022 1.812.117 3.626.25 5.432.03.789.903.803 1.055.741 0-1.255-.012-2.509.002-3.766.026-2.334.048-4.67.109-7.005.056-2.18.122-4.362.272-6.541.028-.393.397-.927.755-1.105 1.494-.75 3.038-.973 4.632-.182.675.333.795.71.716 1.46-.141 1.333-.264 12.931-.557 15.592-.073.654.254 1.465-.697 1.82-.698.258-2.67.914-2.98.929-.601.03-.87.265-.92.947-.087 1.188-.856 5.157-.891 5.971-.051 1.228-.258 1.443-1.516 1.472-1.775.037-3.558.05-5.323.222-1.746.174-2.624-.327-2.687-2.09-.078-2.293.02-4.595.1-6.89.03-.886-.122-1.316-1.166-1.449-2.504-.32-2.955-.888-2.918-3.428.056-4.089.648-15.203.622-16.679-.005-.269-.338-.668-.605-.766-.832-.304-1.49.057-1.725.96zm12.924 37.068c.056.612-.933 1.268-1.886 1.22-.591-.07-1.244-.255-1.289-1.148.156-1.34 3.075-1.095 3.175-.072zm3.094-31.12c.104 1.865.025 7.02.051 7.725.074 2.081.22 3.373.345 5.453.057.987.454 1.25 1.399.922.636-.22 1.909-.555 1.984-1.279.21-2.04-.009-9.189.006-11.093.013-1.158-.172-2.318-.166-3.477.014-1.724-3.721-2.089-3.62 1.75zm-8.45 2.43c-.22 3.442-.714 6.805-.195 10.035.042 1.248 1.339 1.015 1.681.16.26-.844.15-1.708.219-2.588.325-4.09.613-8.182.877-12.276.104-1.619-2.14-3.071-2.581 4.67z"></path></svg></g><path fill="white" fill-rule="nonzero" d="M2.80 14L2.80 26L0 26L0 0L11 0L11 2.40L2.80 2.40L2.80 11.60L9.40 11.60L9.40 14L2.80 14ZM20.20 23.60L22.20 23.60L22.20 26L15.40 26L15.40 23.60L17.40 23.60L17.40 2.40L15.40 2.40L15.40 0L22.20 0L22.20 2.40L20.20 2.40L20.20 23.60ZM31.80 6L31.80 26L29 26L29 0L31.80 0L40.48 20L40.48 0L43.28 0L43.28 26L40.48 26L31.80 6ZM57.72 26L57.72 26L51.28 26L51.28 0L57.72 0Q60.84 0 62.46 1.48Q64.08 2.96 64.08 5.60L64.08 5.60L64.08 20.40Q64.08 23.08 62.48 24.54Q60.88 26 57.72 26ZM61.28 20.40L61.28 20.40L61.28 5.60Q61.28 4.32 60.34 3.36Q59.40 2.40 57.72 2.40L57.72 2.40L54.08 2.40L54.08 23.60L57.72 23.60Q59.40 23.60 60.34 22.66Q61.28 21.72 61.28 20.40ZM83.28 23.60L83.28 26L71.48 26L71.48 0L82.88 0L82.88 2.40L74.28 2.40L74.28 11.60L81.28 11.60L81.28 14L74.28 14L74.28 23.60L83.28 23.60ZM92.08 16.80L92.08 26L89.28 26L89.28 0L95.32 0Q98.44 0 100.06 1.48Q101.68 2.96 101.68 5.60L101.68 5.60L101.68 11.20Q101.68 15.28 98.16 16.40L98.16 16.40L103.08 26L100 26L95.32 16.80L92.08 16.80ZM98.88 11.20L98.88 11.20L98.88 5.60Q98.88 4.08 97.96 3.24Q97.04 2.40 95.32 2.40L95.32 2.40L92.08 2.40L92.08 14.40L95.32 14.40Q98.88 14.40 98.88 11.20Z" transform="translate(41.625 12) scale(1)"></path></svg>